<svg xmlns="http://www.w3.org/2000/svg" viewBox="0 0 24 24" fill="currentColor">
  <path d="M17.09 11h4.86c-.16-1.61-.71-3.11-1.54-4.4L18.07 9c.53.72.93 1.53 1.02 2zm-4.91-7.93C6.79 3.07 2 7.86 2 13.76 2 18.4 5.6 22 10.24 22c5.9 0 10.69-4.79 10.69-10.69 0-4.59-2.92-8.51-7-10.01v2.06c2.99 1.35 5.07 4.37 5.07 7.95 0 4.76-3.86 8.62-8.62 8.62S1.76 18.38 1.76 13.62c0-3.58 2.08-6.6 5.07-7.95V3.61c-4.08 1.5-7 5.42-7 10.01C-.17 19.4 4.43 24 10.24 24 15.9 24 20.5 19.4 20.5 13.76c0-5.75-4.75-10.45-10.69-10.45V1.07z"/>
  <path d="M15.95 7.54 14.2 6.93c-.16.37-.36.7-.58 1.01l1.47.95c.32-.42.58-.89.86-1.35zM19 14c0 .55-.45 1-1 1s-1-.45-1-1 .45-1 1-1 1 .45 1 1zm-2.27-4.46-1.47.95c.22.31.42.64.58 1.01l1.75-.61c-.28-.46-.54-.93-.86-1.35z"/>
</svg>
